<svg xmlns="http://www.w3.org/2000/svg" width="26" height="20" viewBox="0 0 26 20">
  <metadata><?xpacket begin="﻿" id="W5M0MpCehiHzreSzNTczkc9d"?>
<x:xmpmeta xmlns:x="adobe:ns:meta/" x:xmptk="Adobe XMP Core 5.6-c140 79.160451, 2017/05/06-01:08:21        ">
   <rdf:RDF xmlns:rdf="http://www.w3.org/1999/02/22-rdf-syntax-ns#">
      <rdf:Description rdf:about=""/>
   </rdf:RDF>
</x:xmpmeta>
                                                                                                    
                                                                                                    
                                                                                                    
                                                                                                    
                                                                                                    
                                                                                                    
                                                                                                    
                                                                                                    
                                                                                                    
                                                                                                    
                                                                                                    
                                                                                                    
                                                                                                    
                                                                                                    
                                                                                                    
                                                                                                    
                                                                                                    
                                                                                                    
                                                                                                    
                                                                                                    
                           
<?xpacket end="w"?></metadata>
<defs>
    <style>
      .cls-1 {
        fill: #2f2f2f;
        fill-rule: evenodd;
      }
    </style>
  </defs>
  <path class="cls-1" d="M978.754,992.221a0.026,0.026,0,0,0,0,0,3.483,3.483,0,0,0-3.255-2.223h-4.453v-2.507a0.478,0.478,0,0,0-.478-0.479H955.475a0.478,0.478,0,0,0-.479.479v15.024a0.482,0.482,0,0,0,.479.48h2.455a2.511,2.511,0,0,0,4.917,0h9.237a2.511,2.511,0,0,0,4.917,0h1.518a0.482,0.482,0,0,0,.479-0.48V993.5A3.5,3.5,0,0,0,978.754,992.221Zm-0.713,1.281v3.185h-5.082v-3.816h5A2.494,2.494,0,0,1,978.041,993.5Zm-7.954-5.536v2.027H959.634a0.48,0.48,0,0,0,0,.96h10.453v7.218H955.953V987.966h14.134Zm-14.134,11.165h14.134v2.9h-7.221a2.516,2.516,0,0,0-4.957,0h-1.956v-2.9Zm4.435,4.909a1.569,1.569,0,0,1-1.557-1.54,0.016,0.016,0,0,1,0-.01h0c0-.01,0-0.03,0-0.04a1.561,1.561,0,0,1,3.121,0,0.269,0.269,0,0,0,0,.04h0c0,0.01,0,.01,0,0.01A1.567,1.567,0,0,1,960.388,1004.04Zm14.154,0a1.568,1.568,0,0,1-1.556-1.54,0.016,0.016,0,0,1,0-.01h0a0.269,0.269,0,0,0,0-.04,1.561,1.561,0,0,1,3.121,0,0.269,0.269,0,0,0,0,.04h0a0.016,0.016,0,0,1,0,.01A1.568,1.568,0,0,1,974.542,1004.04Zm3.5-2.01h-1.02a2.516,2.516,0,0,0-4.957,0h-1.02V990.953H975.5a2.522,2.522,0,0,1,1.988.959h-5a0.479,0.479,0,0,0-.479.48v4.775a0.479,0.479,0,0,0,.479.48h5.56v4.383Z" transform="translate(-954 -986)"/>
</svg>
