<svg xmlns="http://www.w3.org/2000/svg" width="26" height="26" viewBox="0 0 26 26">
  <metadata><?xpacket begin="﻿" id="W5M0MpCehiHzreSzNTczkc9d"?>
<x:xmpmeta xmlns:x="adobe:ns:meta/" x:xmptk="Adobe XMP Core 5.6-c140 79.160451, 2017/05/06-01:08:21        ">
   <rdf:RDF xmlns:rdf="http://www.w3.org/1999/02/22-rdf-syntax-ns#">
      <rdf:Description rdf:about=""/>
   </rdf:RDF>
</x:xmpmeta>
                                                                                                    
                                                                                                    
                                                                                                    
                                                                                                    
                                                                                                    
                                                                                                    
                                                                                                    
                                                                                                    
                                                                                                    
                                                                                                    
                                                                                                    
                                                                                                    
                                                                                                    
                                                                                                    
                                                                                                    
                                                                                                    
                                                                                                    
                                                                                                    
                                                                                                    
                                                                                                    
                           
<?xpacket end="w"?></metadata>
<defs>
    <style>
      .cls-1 {
        fill: #2f2f2f;
        fill-rule: evenodd;
      }
    </style>
  </defs>
  <path class="cls-1" d="M968.534,960.952h-3.155a0.524,0.524,0,0,1-.526-0.521V953.45h-1.9a0.523,0.523,0,0,1-.525-0.521v-2.043a0.524,0.524,0,0,1,.525-0.522,1.785,1.785,0,0,0,1.791-1.776,0.523,0.523,0,0,1,.526-0.521h3.266a0.523,0.523,0,0,1,.525.521v11.843A0.523,0.523,0,0,1,968.534,960.952Zm-2.63-1.043h2.1v-10.8h-2.264a2.84,2.84,0,0,1-2.267,2.25v1.048h1.9a0.524,0.524,0,0,1,.525.522v6.98ZM967,967a0.526,0.526,0,0,1-.369-0.15l-2.783-2.726-3.866.582a0.524,0.524,0,0,1-.6-0.43l-0.637-3.828-3.473-1.784a0.519,0.519,0,0,1-.228-0.7L956.8,954.5l-1.753-3.468a0.52,0.52,0,0,1,.228-0.7l3.473-1.783,0.637-3.828a0.523,0.523,0,0,1,.6-0.431l3.866,0.582,2.783-2.725a0.529,0.529,0,0,1,.738,0l2.783,2.725,3.866-.582a0.523,0.523,0,0,1,.6.431l0.638,3.828,3.472,1.783a0.52,0.52,0,0,1,.228.7L977.2,954.5l1.753,3.468a0.519,0.519,0,0,1-.228.7l-3.472,1.784-0.638,3.828a0.524,0.524,0,0,1-.6.43l-3.866-.582-2.783,2.726A0.525,0.525,0,0,1,967,967Zm-2.97-3.951a0.527,0.527,0,0,1,.369.15l2.6,2.547,2.6-2.547a0.53,0.53,0,0,1,.447-0.145l3.614,0.544,0.6-3.578a0.521,0.521,0,0,1,.277-0.378l3.245-1.667-1.638-3.242a0.519,0.519,0,0,1,0-.467l1.638-3.242-3.245-1.667a0.519,0.519,0,0,1-.277-0.378l-0.6-3.578-3.614.544a0.53,0.53,0,0,1-.447-0.144l-2.6-2.548-2.6,2.548a0.529,0.529,0,0,1-.448.144l-3.614-.544-0.6,3.578a0.522,0.522,0,0,1-.277.378l-3.246,1.667,1.638,3.242a0.519,0.519,0,0,1,0,.467l-1.638,3.242,3.246,1.667a0.524,0.524,0,0,1,.277.378l0.6,3.578,3.614-.544A0.532,0.532,0,0,1,964.03,963.049Z" transform="translate(-954 -941.5)"/>
</svg>
